<svg xmlns="http://www.w3.org/2000/svg" viewBox="0 0 376.18 301.34"><g id="Layer_2" data-name="Layer 2"><g id="Layer_1-2" data-name="Layer 1"><path d="M376.18,91.17V262.35c-.2.3-.53.58-.57.9-2.47,19.44-20.29,38.16-46.77,38.09-93.75-.27-187.51-.1-281.27-.14A73.65,73.65,0,0,1,37,300.44C17.23,297.57.23,278.68.15,258.72Q-.15,176.83.16,95c.08-20.7,18-40.2,38.67-41.79,13.76-1.06,27.63-.64,41.45-.7,2.83,0,4.62-.69,6.23-3.24,6.09-9.6,12.41-19.06,18.77-28.48C114.19,7.53,126.77.41,142.61.24q45.52-.49,91.06,0c14.5.15,26.71,6.07,35.29,18,7.44,10.3,14.25,21.05,21.22,31.69a5,5,0,0,0,4.72,2.57c11.75-.11,23.5-.14,35.25,0,21.05.19,38.08,12.55,44.06,31.82C374.92,86.54,375.52,88.86,376.18,91.17ZM188,62C131.83,62.4,86.68,107.4,86.72,163c0,55.73,45.88,101.5,101.45,101.28,55.88-.21,101.66-45.58,101.25-101C289,106.22,243.72,62.38,188,62ZM316.62,89.57v0c-2.94,0-5.87-.08-8.8,0A13,13,0,0,0,294.91,102a12.59,12.59,0,0,0,11.61,13.54,132.72,132.72,0,0,0,19.74,0c7-.51,11.62-6.29,11.35-13.28A12.85,12.85,0,0,0,325,89.58C322.24,89.49,319.42,89.57,316.62,89.57Z"/><path d="M185.46,219.28c-31.43-1.22-56.3-28.4-53.63-60.35a56.4,56.4,0,0,1,58.92-52c32.49,1.59,56.26,29.32,53.64,60.4A56.36,56.36,0,0,1,185.46,219.28Z"/></g></g></svg>